Coordinates
version=1
nRows=6
nColumns=107
inDegrees=yes

Units are S.I. units (second, meters, Newtons, ...)
If the header above contains a line with 'inDegrees', this indicates whether rotational values are in degrees (yes) or radians (no).

endheader
time	sternoclavicular_r2	sternoclavicular_r3	unrotscap_r3	unrotscap_r2	acromioclavicular_r2	acromioclavicular_r3	acromioclavicular_r1	unrothum_r1	unrothum_r3	unrothum_r2	elv_angle	shoulder_elv	shoulder1_r2	shoulder_rot	elbow_flexion	pro_sup	deviation	flexion	proximal_distal_r1	proximal_distal_r3	cmc_flexion	cmc_abduction	mp_flexion	ip_flexion	mcp2_flexion	mcp2_abduction	pm2_flexion	md2_flexion	mcp3_flexion	mcp3_abduction	pm3_flexion	md3_flexion	mcp4_flexion	mcp4_abduction	pm4_flexion	md4_flexion	mcp5_flexion	mcp5_abduction	pm5_flexion	md5_flexion	bicpt_tx	bicpt_ty	bicpt_tz	bicpt2_tx	bicpt2_ty	bicpt2_tz	ptpt_tx	ptpt_ty	ptpt_tz	FCUpt_tx	FCUpt_ty	FCUpt_tz	EDCpt_tx	EDCpt_ty	EDCpt_tz	APLpt_tx	APLpt_ty	APLpt_tz	FPLpt_tx	FPLpt_ty	FPLpt_tz	FPLpt2_tx	FPLpt2_ty	FPLpt2_tz	PEC1pt2_tx	PEC1pt2_ty	PEC1pt2_tz	PEC1pt3_tx	PEC1pt3_ty	PEC1pt3_tz	PEC2pt2_tx	PEC2pt2_ty	PEC2pt2_tz	PEC2pt3_tx	PEC2pt3_ty	PEC2pt3_tz	PEC3pt2_tx	PEC3pt2_ty	PEC3pt2_tz	PEC3pt3_tx	PEC3pt3_ty	PEC3pt3_tz	DELT2pt2a_tx	DELT2pt2a_ty	DELT2pt2a_tz	DELT2pt2_tx	DELT2pt2_ty	DELT2pt2_tz	LAT1pt2_tx	LAT1pt2_ty	LAT1pt2_tz	LAT1pt3_tx	LAT1pt3_ty	LAT1pt3_tz	LAT2pt2_tx	LAT2pt2_ty	LAT2pt2_tz	LAT2pt3_tx	LAT2pt3_ty	LAT2pt3_tz	LAT3pt2_tx	LAT3pt2_ty	LAT3pt2_tz	LAT3pt3_tx	LAT3pt3_ty	LAT3pt3_tz
      1.36666667	     -0.31321516	      0.13266316	     -0.13266316	      0.31321516	     -0.06341970	      0.51253570	      0.23038127	     -0.23038127	     -0.51253570	      0.06341970	    102.08746334	     74.15647369	     -1.78176236	    -38.67690387	     30.34624232	     80.26186096	      0.32160629	     -0.61999383	      0.35180637	     -0.30999691	     36.30898293	    -14.53764638	     -6.29906675	      4.17536306	     87.69552253	     12.55017765	     80.59062270	     75.65339572	     92.24089956	      2.20740710	     83.21798647	     56.81811205	     86.02467498	    -12.46387055	     98.41554289	     39.94320512	     83.69678215	    -13.91243642	    101.05034867	      5.44833530	      0.00090376	     -0.03107814	     -0.00486024	      0.01479538	     -0.01844371	     -0.00203560	      0.00161955	     -0.06873472	     -0.00651552	      0.01208391	     -0.18242738	     -0.00006185	     -0.00963140	      0.00326821	     -0.00058189	      0.00031243	      0.00012497	      0.00062486	      0.00039991	      0.00119974	      0.00067485	     -0.00001283	     -0.00017533	     -0.00021040	      0.00243069	      0.00852800	      0.00593252	     -0.00795123	      0.01919830	     -0.01820955	      0.00243069	      0.00852800	      0.00593252	      0.00053557	      0.01779757	     -0.00935196	      0.00387109	      0.00474231	      0.01577672	      0.00000000	      0.00735177	      0.00000000	     -0.00696247	     -0.03217570	     -0.00605936	      0.02222097	     -0.00106281	     -0.01214186	     -0.00086516	      0.01450172	     -0.00593252	      0.00238949	      0.02092862	     -0.01730319	     -0.00580893	      0.01256541	     -0.00531455	     -0.01211223	      0.02653156	     -0.02970381	     -0.02274134	      0.01404854	     -0.00712727	     -0.01507850	      0.03065137	     -0.03711947
      1.40000000	     -0.31649660	      0.13405302	     -0.13405302	      0.31649660	     -0.06408412	      0.51790535	      0.23279489	     -0.23279489	     -0.51790535	      0.06408412	    101.10829795	     74.93338426	     -1.76467270	    -34.41788015	     29.63750121	     73.69827418	      0.28669899	     -0.74113278	      0.32181267	     -0.37056639	     33.96190120	    -13.13196173	     -3.82359974	      0.85330090	     86.61823332	     11.17940696	     77.26789036	     78.71100289	     91.40839824	      1.41225783	     80.92238775	     58.57327269	     85.17286766	    -11.62478001	     98.30625085	     40.27371348	     83.20643415	    -13.32180779	    101.58394569	      5.23718444	      0.00088032	     -0.03099691	     -0.00484715	      0.01533842	     -0.01825117	     -0.00307660	      0.00210453	     -0.06842113	     -0.00598679	      0.01134818	     -0.18263284	     -0.00019805	     -0.00884377	      0.00292629	     -0.00040322	      0.00029830	      0.00011932	      0.00059660	      0.00038182	      0.00114547	      0.00064433	     -0.00001232	     -0.00020826	     -0.00024992	      0.00245615	      0.00861735	      0.00599468	     -0.00803453	      0.01939944	     -0.01840032	      0.00245615	      0.00861735	      0.00599468	      0.00054119	      0.01798403	     -0.00944994	      0.00390096	      0.00479200	      0.01585166	      0.00000000	      0.00750764	      0.00000000	     -0.00703542	     -0.03251279	     -0.00618882	      0.02070593	     -0.00091052	     -0.00976340	     -0.00087422	      0.01465365	     -0.00599468	      0.00241452	      0.02114788	     -0.01748447	     -0.00586979	      0.01269706	     -0.00537023	     -0.01223913	      0.02680952	     -0.03001501	     -0.02297959	      0.01419573	     -0.00720194	     -0.01523647	      0.03097249	     -0.03750835
      1.43333333	     -0.31391085	      0.13295782	     -0.13295782	      0.31391085	     -0.06356056	      0.51367410	      0.23089297	     -0.23089297	     -0.51367410	      0.06356056	    101.69227724	     74.32118398	     -1.77486506	    -37.26236996	     30.51669848	     79.93627690	      0.33969350	     -0.57858657	      0.36656301	     -0.28929329	     35.93309634	    -15.28651040	     -6.06454379	      3.77809439	     83.79411016	     12.51060662	     79.05498189	     73.98128285	     88.96997034	      2.39022950	     82.25667745	     56.61971951	     83.47799216	    -12.33557798	     96.87776280	     42.14182488	     80.81754133	    -13.89655972	     99.89994392	      5.46210181	      0.00090940	     -0.03109768	     -0.00486338	      0.01482472	     -0.01849001	     -0.00208871	      0.00164361	     -0.06871917	     -0.00648930	      0.01204709	     -0.18243787	     -0.00006940	     -0.00959233	      0.00325092	     -0.00057246	      0.00031165	      0.00012466	      0.00062329	      0.00039891	      0.00119672	      0.00067315	     -0.00001285	     -0.00018100	     -0.00021720	      0.00243609	      0.00854694	      0.00594570	     -0.00796889	      0.01924094	     -0.01825000	      0.00243609	      0.00854694	      0.00594570	      0.00053676	      0.01783710	     -0.00937274	      0.00387744	      0.00475285	      0.01579274	      0.00000000	      0.00738467	      0.00000000	     -0.00697794	     -0.03224716	     -0.00608669	      0.02174497	     -0.00101180	     -0.01133223	     -0.00086708	      0.01453393	     -0.00594570	      0.00239480	      0.02097511	     -0.01734162	     -0.00582183	      0.01259332	     -0.00532636	     -0.01213914	      0.02659049	     -0.02976979	     -0.02279185	      0.01407975	     -0.00714310	     -0.01511199	      0.03071945	     -0.03720191
      1.46666667	     -0.31366492	      0.13285366	     -0.13285366	      0.31366492	     -0.06351077	      0.51327167	      0.23071208	     -0.23071208	     -0.51327167	      0.06351077	    101.75779008	     74.26295774	     -1.77600848	    -37.55968560	     30.55325800	     80.31660459	      0.33595612	     -0.58617984	      0.36355780	     -0.29308992	     35.80057711	    -15.62105738	     -6.37430714	      3.80541354	     81.02686917	     12.49919299	     77.18129848	     73.22089716	     86.42362036	      2.36589480	     81.00745313	     56.24353248	     81.53393675	    -12.27279161	     95.36621540	     41.95547703	     78.66448875	    -13.89065788	     98.48968847	      5.46337066	      0.00091061	     -0.03110187	     -0.00486406	      0.01479046	     -0.01849994	     -0.00202668	      0.00161551	     -0.06873734	     -0.00651993	      0.01209010	     -0.18242561	     -0.00006058	     -0.00963797	      0.00327111	     -0.00058348	      0.00031199	      0.00012480	      0.00062398	      0.00039935	      0.00119804	      0.00067390	     -0.00001284	     -0.00018297	     -0.00021956	      0.00243418	      0.00854025	      0.00594104	     -0.00796265	      0.01922587	     -0.01823570	      0.00243418	      0.00854025	      0.00594104	      0.00053634	      0.01782312	     -0.00936539	      0.00387520	      0.00474912	      0.01578708	      0.00000000	      0.00737303	      0.00000000	     -0.00697247	     -0.03222190	     -0.00607703	      0.02184716	     -0.00102249	     -0.01150091	     -0.00086640	      0.01452255	     -0.00594104	      0.00239292	      0.02095867	     -0.01732804	     -0.00581727	      0.01258346	     -0.00532218	     -0.01212963	      0.02656966	     -0.02974647	     -0.02277399	      0.01406872	     -0.00713750	     -0.01510015	      0.03069538	     -0.03717277
      1.50000000	     -0.31259191	      0.13239918	     -0.13239918	      0.31259191	     -0.06329350	      0.51151584	      0.22992285	     -0.22992285	     -0.51151584	      0.06329350	    102.07759902	     74.00891444	     -1.78159020	    -38.99204859	     30.81177506	     82.00162640	      0.33341570	     -0.56869996	      0.36150186	     -0.28434998	     35.57022104	    -16.06975260	     -5.75331337	      4.51273776	     77.67815335	     12.47508023	     74.24816430	     70.65116208	     82.91771987	      2.54728619	     79.28658023	     54.90161072	     78.69024760	    -12.21122544	     92.74474019	     42.32849976	     75.78076662	    -13.89149512	     95.60002106	      5.52405797	      0.00091916	     -0.03113150	     -0.00486883	      0.01463492	     -0.01857017	     -0.00174955	      0.00149101	     -0.06881785	     -0.00665567	      0.01228115	     -0.18237087	     -0.00002031	     -0.00984017	      0.00336106	     -0.00063316	      0.00031101	      0.00012440	      0.00062202	      0.00039809	      0.00119428	      0.00067178	     -0.00001283	     -0.00018634	     -0.00022361	      0.00242585	      0.00851103	      0.00592072	     -0.00793541	      0.01916010	     -0.01817332	      0.00242585	      0.00851103	      0.00592072	      0.00053451	      0.01776215	     -0.00933335	      0.00386539	      0.00473288	      0.01576232	      0.00000000	      0.00732236	      0.00000000	     -0.00694862	     -0.03211167	     -0.00603493	      0.02232343	     -0.00107422	     -0.01232469	     -0.00086344	      0.01447287	     -0.00592072	      0.00238473	      0.02088698	     -0.01726876	     -0.00579737	      0.01254041	     -0.00530398	     -0.01208813	      0.02647877	     -0.02964471	     -0.02269609	      0.01402059	     -0.00711309	     -0.01504849	      0.03059038	     -0.03704560
      1.53333333	     -0.31354754	      0.13280394	     -0.13280394	      0.31354754	     -0.06348700	      0.51307959	      0.23062574	     -0.23062574	     -0.51307959	      0.06348700	    101.52583530	     74.23516655	     -1.77196010	    -37.07781971	     31.07757904	     81.64068712	      0.35730325	     -0.50090681	      0.38041607	     -0.25045341	     35.00269726	    -16.79188140	     -6.60728978	      4.91098167	     72.44639521	     12.51120692	     72.21361935	     66.16307594	     78.38592668	      2.80931243	     77.31657263	     52.79400323	     75.85615588	    -12.09920920	     88.30153658	     44.28235660	     72.38401387	    -13.89749602	     93.13855074	      5.49928918	      0.00092795	     -0.03116197	     -0.00487374	      0.01466879	     -0.01864238	     -0.00180924	      0.00151767	     -0.06880060	     -0.00662660	      0.01224015	     -0.18238266	     -0.00002912	     -0.00979686	      0.00334172	     -0.00062239	      0.00030238	      0.00012095	      0.00060475	      0.00038704	      0.00116112	      0.00065313	     -0.00001272	     -0.00019441	     -0.00023329	      0.00243327	      0.00853705	      0.00593882	     -0.00795967	      0.01921868	     -0.01822887	      0.00243327	      0.00853705	      0.00593882	      0.00053614	      0.01781646	     -0.00936189	      0.00387413	      0.00474735	      0.01578438	      0.00000000	      0.00736748	      0.00000000	     -0.00696986	     -0.03220984	     -0.00607241	      0.02168060	     -0.00100518	     -0.01122818	     -0.00086608	      0.01451711	     -0.00593882	      0.00239202	      0.02095083	     -0.01732155	     -0.00581509	      0.01257875	     -0.00532019	     -0.01212509	      0.02655972	     -0.02973533	     -0.02276547	      0.01406345	     -0.00713483	     -0.01509450	      0.03068389	     -0.03715886
